<svg xmlns="http://www.w3.org/2000/svg" width="64" height="64" fill="none"><rect width="64" height="64" fill="url(#a)" rx="32"/><path fill="#06070B" d="M19.827 19.834c1.855-1.852 4.863-2.31 8.475-1.29 3.018.855 6.164 2.664 9.014 5.164l-.482.377c-2.759-2.404-5.79-4.14-8.693-4.965-1.206-.34-2.337-.512-3.37-.512-1.874 0-3.426.56-4.518 1.65-3.274 3.27-1.515 10.447 3.84 16.598.184.213.37.42.561.63l.176.19c.112.114.22.233.334.35l.343.347c.158.158.317.317.478.468.073.071.148.142.221.209l.51.47.306.266c2.762 2.411 5.8 4.152 8.71 4.975 3.392.963 6.195.56 7.888-1.136 1.695-1.693 2.098-4.497 1.139-7.888-.825-2.904-2.564-5.938-4.968-8.697.12-.155.246-.313.377-.477 2.502 2.849 4.311 5.995 5.164 9.01 1.023 3.61.566 6.621-1.287 8.474-1.209 1.21-2.907 1.822-4.938 1.822-1.092 0-2.277-.176-3.537-.532-3.55-1.008-7.275-3.328-10.488-6.542-6.675-6.677-9.033-15.184-5.254-18.963l-.001.002Z"/><path fill="#06070B" fill-rule="evenodd" d="M24.865 24.873c3.517 4.78 4.527 6.894.953 11.887a24.414 24.414 0 0 0 1.3 1.3c4.991-3.574 7.111-2.564 11.887.953-3.517-4.776-4.527-6.895-.953-11.887a42.772 42.772 0 0 1 2.059-2.617c1.816-2.159 4.257-4.796 7.423-8.164-3.368 3.167-6.005 5.608-8.164 7.424-.96.805-1.826 1.49-2.617 2.054-4.992 3.574-7.11 2.564-11.886-.95h-.002ZM16.337 47.542c3.373-3.167 6.01-5.612 8.169-7.424a32.011 32.011 0 0 1-.377-.37c-.124-.125-.25-.25-.368-.377-1.812 2.162-4.257 4.799-7.424 8.17Z" clip-rule="evenodd"/><path fill="#06070B" d="m32.304 7.384.17-2.951.325.02 1.558 2.48-.147.008.138-2.4.392.021-.17 2.952-.324-.02-1.55-2.496.135-.008-.137 2.416-.388-.022h-.002ZM35.567 7.653l.51-2.912.383.066-.447 2.56 1.278.223-.061.351-1.661-.291-.002.003ZM38.245 8.178l.082-3.068.39.12-.106 2.692-.09-.029 1.458-2.273.391.121-.083 2.698-.095-.03 1.436-2.28.39.121-1.666 2.579-.413-.128.076-2.689.098.03-1.457 2.261-.414-.128.003.003ZM41.88 9.434l.514-.563-.426-.212.15-.303.512.255.577-.626-.426-.213.15-.302.512.255.513-.56.344.172-.513.56.693.344.513-.56.349.173-.514.56.426.212-.15.302-.514-.256-.573.628.426.212-.15.302-.511-.254-.515.563-.349-.173.515-.563-.693-.345-.515.564-.344-.172h-.001Zm1.098-.65.693.344.573-.627-.693-.345-.573.628ZM45.3 11.3l1.422-2.2-.47-.303.183-.283.8.516-1.603 2.483-.33-.214-.001.002ZM47.563 12.94l.424-.535-1.139-.903.2-.252 2.345-.633.292.232-1.213 1.53.303.24-.2.251-.301-.24-.424.536-.285-.228-.002.002Zm-.37-1.398.042-.143.952.754 1.01-1.276.07.097-2.074.568ZM51.285 14.67l.264-.211 1.907 2.386-.263.211-1.907-2.386h-.001ZM53.784 20.506l2.662-1.288.855 1.768-.43.207-.62-1.282-.682.33.585 1.21-.428.207-.586-1.21-.693.334.621 1.283-.429.206-.855-1.768v.003ZM54.843 22.736l1.724.426 1.071-1.389.203.584-.878 1.137-.094-.27 1.393.343.203.584-1.7-.42-1.09 1.4-.203-.585.892-1.146.094.27-1.412-.35-.203-.584ZM55.843 25.781l2.888-.629.234 1.078c.043.196.045.379.007.545a.84.84 0 0 1-.233.422.934.934 0 0 1-.466.235.908.908 0 0 1-.52-.023.87.87 0 0 1-.388-.287 1.227 1.227 0 0 1-.222-.496l-.12-.55-1.066.232-.114-.527Zm1.645.195.122.558c.02.095.057.174.11.235a.427.427 0 0 0 .437.138.455.455 0 0 0 .222-.11.417.417 0 0 0 .12-.195.538.538 0 0 0 .002-.26l-.12-.558-.892.193v-.001ZM56.405 28.644l2.942-.294.194 1.955-.473.047-.142-1.417-.754.075.133 1.338-.474.048-.133-1.338-.766.076.141 1.417-.474.048-.194-1.955ZM56.63 31.343l2.956.048-.017 1.098a1.239 1.239 0 0 1-.118.533.834.834 0 0 1-.324.358.94.94 0 0 1-.507.122.907.907 0 0 1-.518-.152.872.872 0 0 1-.311-.396l-1.197.658.01-.61 1.31-.706-.213.346.012-.742-1.09-.018.008-.539Zm1.56.565-.01.568a.535.535 0 0 0 .053.254.41.41 0 0 0 .158.17c.068.04.147.062.237.063a.457.457 0 0 0 .24-.056.415.415 0 0 0 .163-.163c.04-.07.06-.155.061-.253l.01-.568-.912-.015ZM56.466 34.756l2.461.3.093-.76.472.057-.249 2.047-.472-.057.091-.748-2.461-.301.065-.54v.002ZM56.899 39.306l.317.114-1.03 2.876-.318-.113 1.031-2.876v-.002ZM53.226 44.533l2.472 1.62-.178.272-2.928.11.067-.132 2.01 1.318-.215.328-2.472-1.62.178-.272 2.938-.095-.061.12-2.024-1.327.213-.325v.003ZM51.365 47.223l2.268 1.896-.249.298-1.993-1.667-.831.995-.274-.229 1.082-1.293h-.003ZM49.571 49.281l2.62 1.6-.299.277-2.28-1.433.07-.066 1.242 2.398-.3.277-2.297-1.417.072-.068 1.26 2.383-.299.277-1.406-2.73.317-.293 2.292 1.406-.074.07-1.236-2.388.317-.294.001.001ZM46.673 51.808l.233.727.396-.264.188.28-.475.317.255.811.397-.265.188.28-.476.318.232.724-.32.214-.231-.725-.643.43.231.725-.322.216-.232-.724-.396.264-.188-.28.478-.32-.26-.81-.396.265-.188-.28.475-.317-.233-.727.323-.217.233.727.642-.43-.232-.727.32-.214v.002Zm.019 1.276-.643.43.26.81.643-.43-.26-.81ZM43.351 53.851l1.204 2.325.497-.257.155.3-.846.436-1.358-2.624.348-.181v.001ZM40.808 54.999l.254.634 1.349-.54.12.299-.617 2.348-.346.14-.724-1.814-.358.143-.12-.298.358-.143-.253-.635.339-.136-.002.002Zm1.397.372.104.11-1.128.45.603 1.511-.118.014.54-2.083v-.002ZM37.452 57.364l.05.334-3.02.46-.051-.333 3.02-.46ZM31.146 56.614l-.208 2.949-1.96-.139.035-.475 1.421.1.053-.755-1.342-.095.034-.475 1.342.095.055-.768-1.422-.1.034-.476 1.96.14h-.002ZM28.687 56.424l-1.226 1.284.672 1.62-.608-.115-.55-1.327.28.053-.99 1.037-.608-.114 1.212-1.266-.673-1.64.609.114.551 1.342-.28-.053 1.004-1.05.609.113-.002.002ZM25.543 55.775l-.89 2.817-1.053-.332a1.244 1.244 0 0 1-.476-.265.833.833 0 0 1-.25-.413.934.934 0 0 1 .027-.521.91.91 0 0 1 .277-.438.866.866 0 0 1 .443-.195c.168-.025.348-.007.54.054l.538.17.33-1.04.514.163Zm-.987 1.33-.545-.17a.528.528 0 0 0-.26-.023.41.41 0 0 0-.207.104.456.456 0 0 0-.128.21.454.454 0 0 0-.015.246.418.418 0 0 0 .112.201.523.523 0 0 0 .225.131l.544.172.275-.87h-.001ZM22.782 54.84l-1.209 2.699-1.793-.803.195-.435 1.3.583.31-.692-1.227-.55.194-.434 1.228.55.315-.702-1.3-.583.194-.434 1.793.803v-.001ZM20.329 53.692l-1.512 2.54-.945-.562a1.256 1.256 0 0 1-.403-.367.845.845 0 0 1-.15-.458.939.939 0 0 1 .146-.503.906.906 0 0 1 .39-.373.866.866 0 0 1 .499-.073l.024-1.367.526.313-.04 1.487-.194-.355.637.38.558-.939.464.277Zm-1.265 1.07-.487-.29a.53.53 0 0 0-.248-.08.405.405 0 0 0-.226.052.462.462 0 0 0-.173.175.422.422 0 0 0-.01.459c.043.069.106.129.19.18l.488.29.466-.785v-.001ZM17.454 51.847l-1.49 1.982.612.46-.286.381-1.648-1.24.285-.38.604.452 1.49-1.982.434.327h-.001ZM13.295 49.948l-.257.22-1.98-2.326.257-.219 1.98 2.325ZM10.588 44.165l-2.635 1.341-.147-.29 1.359-2.597.08.124-2.142 1.09-.179-.35 2.634-1.34.147.29L8.33 45.03l-.075-.113 2.157-1.098.177.346ZM9.179 41.214l-2.773 1.024-.135-.365 2.438-.9-.45-1.217.336-.124.584 1.582ZM8.287 38.633l-2.694 1.472-.091-.4 2.38-1.26.022.093-2.698-.12-.09-.399 2.375-1.284.021.097-2.692-.097-.091-.398 3.067.144.096.422-2.362 1.285-.023-.1 2.687.122.097.422-.004.001ZM7.545 34.86l-.746-.161.031.475-.336.022-.038-.57-.832-.184.032.475-.337.021-.038-.57-.742-.162-.026-.384.742.162-.051-.772-.742-.162-.026-.388.742.162-.032-.475.337-.021.038.574.832.18-.032-.476.336-.021.039.57.746.16.025.389-.746-.16.052.771.746.16.026.384Zm-1.115-.623-.052-.772-.83-.18.052.773.832.18H6.43ZM7.433 30.96l-2.616-.116-.024.56-.337-.016.042-.951 2.953.13-.018.392ZM7.704 28.184l-.675-.096-.203 1.438-.318-.045-1.73-1.703.051-.369 1.933.274.055-.381.318.044-.054.382.675.095-.052.362v-.001ZM6.686 29.21l-.146.035.17-1.202-1.61-.227.048-.109 1.538 1.504ZM7.32 24.096l-.315-.122 1.102-2.849.315.122-1.103 2.849ZM11.109 19l-2.45-1.654 1.098-1.628.395.267-.798 1.18.628.425.753-1.115.394.267-.752 1.115.638.43.798-1.18.394.267-1.098 1.628V19ZM12.504 16.966l-.5-1.702-1.739-.228.403-.47 1.424.187-.187.216-.404-1.376.403-.47.491 1.682 1.758.237-.403.47-1.439-.194.187-.216.408 1.395-.403.47h.001ZM14.636 14.567l-2-2.177.813-.746c.148-.136.304-.23.467-.28a.844.844 0 0 1 .482-.013.916.916 0 0 1 .438.285.924.924 0 0 1 .242.46.871.871 0 0 1-.051.48 1.22 1.22 0 0 1-.316.441l-.415.382.738.803-.398.365Zm-.663-1.52.42-.386a.541.541 0 0 0 .15-.214.407.407 0 0 0 .013-.231.46.46 0 0 0-.117-.215.465.465 0 0 0-.206-.137.412.412 0 0 0-.23-.004.526.526 0 0 0-.226.13l-.42.386.618.673-.002-.002ZM16.824 12.636l-1.74-2.389 1.587-1.156.28.386-1.151.838.447.613 1.087-.793.28.386-1.087.792.453.622 1.152-.838.28.385-1.587 1.156-.001-.002ZM19.036 11.08l-1.454-2.573.957-.54c.175-.1.347-.155.519-.167a.85.85 0 0 1 .472.098.931.931 0 0 1 .363.375c.101.177.143.351.13.524a.861.861 0 0 1-.184.469l1.175.698-.532.3-1.27-.771.405.008-.647.365.537.95-.47.266-.001-.002Zm-.301-1.63.494-.278a.519.519 0 0 0 .193-.176.42.42 0 0 0 .067-.222.472.472 0 0 0-.065-.237.462.462 0 0 0-.17-.18.407.407 0 0 0-.224-.055.525.525 0 0 0-.249.075l-.494.279.45.795h-.002ZM22.069 9.5 21.09 7.22l-.704.302-.188-.437 1.895-.814.188.437-.693.298.979 2.28-.5.214.002-.001ZM25.785 6.838l-.061-.332 3.004-.555.061.332-3.004.555Z"/><defs><radialGradient id="a" cx="0" cy="0" r="1" gradientTransform="matrix(15.34805 106.5331 -94.48993 13.613 31.9 -12.74)" gradientUnits="userSpaceOnUse"><stop stop-color="#D1F593"/><stop offset="1" stop-color="#859398"/></radialGradient></defs></svg>
